<?xml version="1.0" encoding="UTF-8"?>
<svg width="200px" height="200px" viewBox="0 0 200 200" version="1.1" xmlns="http://www.w3.org/2000/svg" xmlns:xlink="http://www.w3.org/1999/xlink">
    <title>Book Pattern</title>
    <g id="Book-Pattern" stroke="none" stroke-width="1" fill="none" fill-rule="evenodd">
        <g id="Book-1" transform="translate(10.000000, 30.000000)" fill="#000000" fill-opacity="0.1">
            <rect id="Cover" x="0" y="0" width="40" height="60" rx="2"></rect>
            <rect id="Spine" x="5" y="5" width="30" height="5" rx="1" fill="#FFFFFF" fill-opacity="0.3"></rect>
            <rect id="Title" x="10" y="20" width="20" height="3" rx="1" fill="#FFFFFF" fill-opacity="0.3"></rect>
            <rect id="Author" x="15" y="30" width="10" height="2" rx="1" fill="#FFFFFF" fill-opacity="0.3"></rect>
        </g>
        <g id="Book-2" transform="translate(70.000000, 50.000000)" fill="#000000" fill-opacity="0.1">
            <rect id="Cover" x="0" y="0" width="30" height="70" rx="2"></rect>
            <rect id="Spine" x="3" y="5" width="24" height="5" rx="1" fill="#FFFFFF" fill-opacity="0.3"></rect>
            <rect id="Title" x="5" y="20" width="20" height="3" rx="1" fill="#FFFFFF" fill-opacity="0.3"></rect>
            <rect id="Author" x="10" y="30" width="10" height="2" rx="1" fill="#FFFFFF" fill-opacity="0.3"></rect>
        </g>
        <g id="Book-3" transform="translate(130.000000, 40.000000)" fill="#000000" fill-opacity="0.1">
            <rect id="Cover" x="0" y="0" width="50" height="50" rx="2"></rect>
            <rect id="Spine" x="5" y="5" width="40" height="5" rx="1" fill="#FFFFFF" fill-opacity="0.3"></rect>
            <rect id="Title" x="15" y="20" width="20" height="3" rx="1" fill="#FFFFFF" fill-opacity="0.3"></rect>
            <rect id="Author" x="20" y="30" width="10" height="2" rx="1" fill="#FFFFFF" fill-opacity="0.3"></rect>
        </g>
        <g id="Book-4" transform="translate(30.000000, 120.000000)" fill="#000000" fill-opacity="0.1">
            <rect id="Cover" x="0" y="0" width="45" height="55" rx="2"></rect>
            <rect id="Spine" x="5" y="5" width="35" height="5" rx="1" fill="#FFFFFF" fill-opacity="0.3"></rect>
            <rect id="Title" x="10" y="20" width="25" height="3" rx="1" fill="#FFFFFF" fill-opacity="0.3"></rect>
            <rect id="Author" x="15" y="30" width="15" height="2" rx="1" fill="#FFFFFF" fill-opacity="0.3"></rect>
        </g>
        <g id="Book-5" transform="translate(110.000000, 130.000000)" fill="#000000" fill-opacity="0.1">
            <rect id="Cover" x="0" y="0" width="35" height="65" rx="2"></rect>
            <rect id="Spine" x="5" y="5" width="25" height="5" rx="1" fill="#FFFFFF" fill-opacity="0.3"></rect>
            <rect id="Title" x="7" y="20" width="21" height="3" rx="1" fill="#FFFFFF" fill-opacity="0.3"></rect>
            <rect id="Author" x="12" y="30" width="11" height="2" rx="1" fill="#FFFFFF" fill-opacity="0.3"></rect>
        </g>
    </g>
</svg>
