<?xml version="1.0" encoding="UTF-8"?>
<svg width="200px" height="200px" viewBox="0 0 200 200" version="1.1" xmlns="http://www.w3.org/2000/svg" xmlns:xlink="http://www.w3.org/1999/xlink">
    <title>Book Placeholder</title>
    <g id="Book-Placeholder" stroke="none" stroke-width="1" fill="none" fill-rule="evenodd">
        <rect id="Background" fill="#F3F4F6" x="0" y="0" width="200" height="200" rx="8"></rect>
        <g id="Book-Icon" transform="translate(50.000000, 50.000000)" fill="#9CA3AF" fill-rule="nonzero">
            <path d="M100,0 L100,100 L0,100 L0,0 L100,0 Z M95,5 L5,5 L5,95 L95,95 L95,5 Z" id="Rectangle"></path>
            <path d="M75,20 C79.9705627,20 84,24.0294373 84,29 L84,71 C84,75.9705627 79.9705627,80 75,80 L25,80 C20.0294373,80 16,75.9705627 16,71 L16,29 C16,24.0294373 20.0294373,20 25,20 L75,20 Z M75,25 L25,25 C22.7908609,25 21,26.7908609 21,29 L21,71 C21,73.2091391 22.7908609,75 25,75 L75,75 C77.2091391,75 79,73.2091391 79,71 L79,29 C79,26.7908609 77.2091391,25 75,25 Z" id="Rectangle-Copy"></path>
            <path d="M35,40 L65,40 C66.1045695,40 67,40.8954305 67,42 C67,43.1045695 66.1045695,44 65,44 L35,44 C33.8954305,44 33,43.1045695 33,42 C33,40.8954305 33.8954305,40 35,40 Z" id="Line"></path>
            <path d="M35,50 L65,50 C66.1045695,50 67,50.8954305 67,52 C67,53.1045695 66.1045695,54 65,54 L35,54 C33.8954305,54 33,53.1045695 33,52 C33,50.8954305 33.8954305,50 35,50 Z" id="Line-Copy"></path>
            <path d="M35,60 L55,60 C56.1045695,60 57,60.8954305 57,62 C57,63.1045695 56.1045695,64 55,64 L35,64 C33.8954305,64 33,63.1045695 33,62 C33,60.8954305 33.8954305,60 35,60 Z" id="Line-Copy-2"></path>
        </g>
    </g>
</svg>
